<svg width="24" height="24" viewBox="0 0 24 24" fill="none" xmlns="http://www.w3.org/2000/svg">
<rect width="24" height="24" fill="white" fill-opacity="0.01"/>
<path fill-rule="evenodd" clip-rule="evenodd" d="M9.38843 21.6334V15.1117H14.6058V21.6334C14.6058 22.3508 15.1927 22.9377 15.9101 22.9377H19.8231C20.5405 22.9377 21.1275 22.3508 21.1275 21.6334V12.503H23.3448C23.9448 12.503 24.2318 11.7596 23.7753 11.3683L12.871 1.5466C12.3754 1.10312 11.6188 1.10312 11.1232 1.5466L0.218936 11.3683C-0.224539 11.7596 0.0493716 12.503 0.649367 12.503H2.86674V21.6334C2.86674 22.3508 3.45369 22.9377 4.17108 22.9377H8.08409C8.80148 22.9377 9.38843 22.3508 9.38843 21.6334Z" fill="#594ED9"/>
</svg>
