<svg width="222" height="53" viewBox="0 0 222 53" fill="none" xmlns="http://www.w3.org/2000/svg">
<path d="M33.038 1.21262C33.3531 0.477008 34.0763 0 34.8765 0H218.968C220.403 0 221.371 1.4677 220.806 2.78738L201.962 46.7874C201.647 47.523 200.924 48 200.123 48H16.0323C14.5966 48 13.6286 46.5323 14.1938 45.2126L33.038 1.21262Z" fill="#FFC253"/>
<path d="M20.038 6.21262C20.3531 5.47701 21.0763 5 21.8765 5H209L188.443 53H3.03226C1.59664 53 0.628586 51.5323 1.19378 50.2126L20.038 6.21262Z" fill="#D53BBA"/>
<path d="M26.038 6.21262C26.3531 5.47701 27.0763 5 27.8765 5H211.968C213.403 5 214.371 6.4677 213.806 7.78738L194.962 51.7874C194.647 52.523 193.924 53 193.123 53H9.03226C7.59664 53 6.62859 51.5323 7.19378 50.2126L26.038 6.21262Z" fill="#594ED9"/>
<path d="M31.1094 41L34.2812 26.0156H34.4062L36.6562 40.9688H40.125L48.7031 26.0156H48.875L45.6562 41H50.7656L55.5625 18.4531H48.4219L39.8281 33.7344H39.7188L37.3906 18.4531H30.7969L26.0156 41H31.1094Z" fill="white"/>
<path d="M69.125 41H74.9531L72.3594 18.4531H65.3438L52.7812 41H58.8438L61.3906 36.0469H68.75L69.125 41ZM67.7656 23.4844H67.8906L68.5156 31.9219H63.4688L67.7656 23.4844Z" fill="white"/>
<path d="M82.7031 41L84.0312 34.7812L86.6562 32.1562L90.6406 41H96.9531L91.4062 28.9062L101.734 18.4531H95.125L85.5625 28.0781H85.4531L87.5 18.4531H81.7656L76.9688 41H82.7031Z" fill="white"/>
<path d="M104.516 41L107.422 27.2188H107.531L114.188 41H118.688L123.484 18.4531H117.969L115.062 32.2344H114.953L108.297 18.4531H103.797L99 41H104.516Z" fill="white"/>
<path d="M138.734 36.3906H129.031L130.016 31.7812H139.141L140.031 27.5625H130.906L131.859 23.0625H141.562L142.547 18.4531H127.109L122.312 41H137.766L138.734 36.3906Z" fill="white"/>
<path d="M157.547 26.9688H157.656L158.578 41H163.953L174.594 18.4531H168.688L162.531 33.4844H162.422L161.656 18.4531H157.109L150.156 33.4844H150.047L150.125 18.4531H144.297L145.406 41H150.844L157.547 26.9688Z" fill="white"/>
<path d="M172.25 34.3594C172.297 38.7969 175.953 41.3906 181.703 41.3906C187.516 41.3906 191.281 38.3125 191.281 33.8594C191.281 30.7031 189.484 28.9688 185.516 27.7969L183.266 27.125C181.234 26.5312 180.484 25.7969 180.484 24.6875C180.484 23.4375 181.719 22.4062 183.812 22.4062C185.984 22.4062 187.391 23.4688 187.453 25.0625H192.75C192.719 20.6875 189.219 18.0625 183.703 18.0625C178.438 18.0625 174.656 20.9844 174.656 25.3906C174.656 28.4688 176.609 30.4375 180.359 31.5938L182.516 32.25C184.797 32.9531 185.406 33.5781 185.406 34.6875C185.406 36.125 183.969 37.0312 181.812 37.0312C179.578 37.0312 177.922 35.9219 177.703 34.3594H172.25Z" fill="white"/>
</svg>
