<svg width="18" height="18" viewBox="0 0 18 18" fill="none" xmlns="http://www.w3.org/2000/svg">
<g clip-path="url(#clip0_424_276)">
<path d="M8.04751 0.428574C12.2554 0.428574 15.6666 3.83974 15.6666 8.04762C15.6666 9.80824 15.0694 11.4294 14.0665 12.7195L17.2924 15.9456C17.6643 16.3175 17.6643 16.9206 17.2924 17.2925C16.9205 17.6644 16.3174 17.6644 15.9455 17.2925L12.7194 14.0666C11.4293 15.0695 9.80813 15.6667 8.04751 15.6667C3.83963 15.6667 0.428467 12.2555 0.428467 8.04762C0.428467 3.83974 3.83963 0.428574 8.04751 0.428574ZM8.04751 2.33334C4.8916 2.33334 2.33323 4.89171 2.33323 8.04762C2.33323 11.2035 4.8916 13.7619 8.04751 13.7619C11.2034 13.7619 13.7618 11.2035 13.7618 8.04762C13.7618 4.89171 11.2034 2.33334 8.04751 2.33334Z" fill="#B5BBC6"/>
</g>
<defs>
<clipPath id="clip0_424_276">
<rect width="18" height="18" fill="white"/>
</clipPath>
</defs>
</svg>
