<svg width="24" height="24" viewBox="0 0 24 24" fill="none" xmlns="http://www.w3.org/2000/svg">
<rect width="24" height="24" fill="white" fill-opacity="0.01"/>
<path fill-rule="evenodd" clip-rule="evenodd" d="M17.1527 15.0943H16.0686L15.6844 14.7238C17.0292 13.1595 17.8388 11.1286 17.8388 8.91938C17.8388 3.99314 13.8456 0 8.91938 0C3.99314 0 0 3.99314 0 8.91938C0 13.8456 3.99314 17.8388 8.91938 17.8388C11.1286 17.8388 13.1595 17.0292 14.7238 15.6844L15.0943 16.0686V17.1527L21.9554 24L24 21.9554L17.1527 15.0943V15.0943ZM8.91921 15.0943C5.5024 15.0943 2.74426 12.3362 2.74426 8.91939C2.74426 5.50258 5.5024 2.74443 8.91921 2.74443C12.336 2.74443 15.0942 5.50258 15.0942 8.91939C15.0942 12.3362 12.336 15.0943 8.91921 15.0943V15.0943Z" fill="#B5BBC6"/>
<mask id="mask0_469_300" style="mask-type:alpha" maskUnits="userSpaceOnUse" x="0" y="0" width="24" height="24">
<path fill-rule="evenodd" clip-rule="evenodd" d="M17.1527 15.0943H16.0686L15.6844 14.7238C17.0292 13.1595 17.8388 11.1286 17.8388 8.91938C17.8388 3.99314 13.8456 0 8.91938 0C3.99314 0 0 3.99314 0 8.91938C0 13.8456 3.99314 17.8388 8.91938 17.8388C11.1286 17.8388 13.1595 17.0292 14.7238 15.6844L15.0943 16.0686V17.1527L21.9554 24L24 21.9554L17.1527 15.0943V15.0943ZM8.91921 15.0943C5.5024 15.0943 2.74426 12.3362 2.74426 8.91939C2.74426 5.50258 5.5024 2.74443 8.91921 2.74443C12.336 2.74443 15.0942 5.50258 15.0942 8.91939C15.0942 12.3362 12.336 15.0943 8.91921 15.0943V15.0943Z" fill="white"/>
</mask>
<g mask="url(#mask0_469_300)">
</g>
</svg>
